<?xml version="1.0" standalone="no"?>
<!DOCTYPE svg PUBLIC "-//W3C//DTD SVG 20010904//EN"
 "http://www.w3.org/TR/2001/REC-SVG-20010904/DTD/svg10.dtd">
<svg version="1.0" xmlns="http://www.w3.org/2000/svg"
 width="2100.000000pt" height="2100.000000pt" viewBox="0 0 2100.000000 2100.000000"
 preserveAspectRatio="xMidYMid meet">
<metadata>
Created by potrace 1.14, written by Peter Selinger 2001-2017
</metadata>
<g transform="translate(0.000000,2100.000000) scale(0.100000,-0.100000)"
fill="#000000" stroke="none">
<path d="M5537 19122 c-10 -2 -41 -45 -71 -95 -77 -133 -235 -405 -261 -452
-12 -22 -55 -96 -95 -165 -40 -69 -83 -143 -95 -165 -13 -22 -121 -209 -240
-415 -120 -206 -229 -395 -243 -420 -14 -25 -55 -97 -92 -160 -36 -63 -113
-196 -170 -295 -57 -99 -110 -191 -119 -205 -8 -14 -23 -39 -33 -57 -9 -17
-92 -161 -184 -320 -92 -158 -176 -304 -187 -323 -20 -37 -111 -194 -126 -220
-8 -13 -177 -305 -240 -414 -13 -22 -48 -84 -79 -136 -30 -52 -68 -120 -85
-150 -16 -30 -36 -62 -43 -71 -8 -8 -14 -18 -14 -21 0 -6 -90 -164 -328 -573
-58 -99 -118 -205 -135 -235 -16 -30 -36 -62 -43 -71 -8 -8 -14 -18 -14 -21 0
-3 -48 -89 -106 -190 -59 -100 -131 -226 -161 -278 -30 -52 -58 -102 -64 -110
-9 -15 -197 -341 -333 -578 -39 -68 -79 -137 -89 -154 -32 -55 -169 -292 -195
-338 -13 -25 -39 -70 -57 -100 -19 -30 -81 -138 -139 -240 -59 -102 -110 -192
-116 -200 -5 -8 -39 -67 -75 -130 -36 -63 -79 -137 -96 -165 -16 -27 -34 -59
-39 -70 -6 -11 -19 -33 -29 -50 -10 -16 -28 -48 -41 -70 -12 -22 -112 -194
-221 -383 -110 -189 -199 -347 -199 -353 0 -5 -4 -9 -10 -9 -5 0 -10 -4 -10
-9 0 -5 -27 -56 -60 -112 -55 -95 -58 -105 -45 -124 8 -11 26 -42 41 -70 15
-27 42 -74 60 -103 19 -29 34 -54 34 -57 0 -2 22 -42 49 -87 62 -105 450 -778
483 -838 14 -25 54 -94 90 -155 60 -102 84 -144 136 -235 10 -19 68 -118 127
-220 59 -102 119 -205 133 -229 13 -25 38 -68 55 -95 16 -28 40 -69 52 -91 12
-22 88 -155 170 -295 81 -140 158 -274 171 -297 32 -55 265 -460 314 -543 59
-100 330 -569 358 -620 14 -25 34 -61 45 -80 10 -19 23 -39 27 -45 4 -5 19
-30 32 -55 14 -25 54 -95 90 -156 36 -61 68 -117 71 -125 4 -8 20 -35 35 -60
15 -25 64 -111 110 -190 46 -79 88 -151 93 -159 20 -33 96 -166 102 -180 4 -8
15 -28 26 -45 10 -16 130 -223 266 -460 136 -236 256 -443 266 -460 10 -16 34
-59 55 -95 20 -36 75 -129 121 -208 45 -79 83 -145 83 -147 0 -3 15 -28 34
-57 18 -29 45 -75 60 -103 15 -27 37 -66 48 -85 11 -19 71 -123 133 -230 62
-107 122 -211 134 -230 11 -19 24 -41 27 -48 4 -7 66 -115 138 -240 73 -125
137 -236 144 -247 155 -269 268 -464 287 -498 13 -23 75 -132 139 -242 64
-110 117 -204 119 -210 3 -7 1674 -10 4983 -10 4456 -1 4980 1 4990 15 9 12
167 285 303 523 10 18 51 88 91 157 40 69 83 143 95 165 13 22 46 81 75 130
29 50 61 106 72 125 24 41 196 339 226 390 12 19 40 69 64 110 23 41 48 84 55
95 7 11 15 26 19 34 4 8 85 149 181 313 95 165 173 303 173 306 0 3 6 13 14
21 7 9 25 37 40 64 46 83 71 128 201 352 70 121 141 245 158 275 16 30 36 62
43 71 8 8 14 18 14 22 0 4 22 44 49 89 49 84 230 398 261 453 9 17 65 113 125
215 59 102 117 202 129 222 48 84 123 215 151 264 17 29 138 238 269 466 132
227 249 430 260 450 12 21 45 79 75 130 57 97 67 115 123 213 19 33 46 79 61
102 15 24 27 45 27 47 0 2 39 71 86 153 96 164 386 667 669 1158 54 94 136
234 182 313 45 78 83 145 83 148 0 3 14 26 30 51 17 24 30 46 30 47 0 2 72
129 161 282 89 154 171 297 184 319 12 22 61 106 107 187 l85 146 -133 232
c-74 128 -134 236 -134 241 0 5 -4 9 -10 9 -5 0 -10 4 -10 10 0 5 -27 55 -60
111 -33 55 -60 103 -60 105 0 3 -16 30 -35 60 -19 30 -35 56 -35 59 0 2 -14
28 -31 57 -36 60 -129 221 -168 288 -23 40 -209 362 -236 408 -6 9 -30 53 -54
97 -24 44 -52 91 -61 105 -10 14 -38 61 -62 105 -25 44 -163 285 -308 535
-145 250 -306 529 -358 620 -52 91 -136 235 -185 320 -49 85 -101 175 -115
200 -13 25 -28 50 -32 55 -4 6 -19 31 -33 57 -14 26 -66 116 -115 200 -49 84
-151 261 -226 393 -76 132 -147 252 -157 267 -11 15 -19 29 -19 32 0 3 -106
189 -236 413 -130 224 -248 428 -262 453 -14 25 -45 78 -69 118 -24 41 -43 75
-43 77 0 2 -18 33 -40 69 -22 36 -40 68 -40 72 0 3 -13 25 -30 49 -17 24 -30
46 -30 48 0 3 -19 38 -43 79 -24 40 -55 93 -69 118 -14 25 -48 85 -77 133 -28
49 -51 93 -51 98 0 5 -4 9 -10 9 -5 0 -10 4 -10 10 0 5 -22 47 -49 92 -27 46
-58 99 -68 118 -11 19 -62 107 -113 195 -51 88 -103 179 -116 202 -13 23 -53
92 -89 153 -36 61 -65 113 -65 115 0 2 -17 32 -38 67 -22 35 -66 110 -99 168
-34 58 -119 206 -191 330 -71 124 -140 244 -153 266 -13 23 -97 169 -187 325
l-164 284 -4962 0 c-2729 0 -4970 -1 -4979 -3z m11632 -4773 l2223 -3850 -39
-67 c-21 -37 -1021 -1769 -2222 -3849 l-2184 -3783 -4447 0 -4447 0 -2184
3783 c-1201 2080 -2201 3812 -2222 3849 l-39 67 2223 3850 2223 3851 4446 0
4446 0 2223 -3851z"/>
</g>
</svg>
